# xmcd
#
# Track frame offsets:
#	150
#	14162
#	28232
#	42402
#	57352
#	69016
#	85739
#	99486
#	110596
#	121389
#	137277
#	151792
#
# Disc length: 2235 seconds
#
# Revision: 0
# Processed by: cddbd v1.5.1PL0 Copyright (c) Steve Scherf et al.
# Submitted via: EasyCDDAExtractor 8.2.1.1
#
DISCID=9708b90c
DTITLE=Thor Wang - Det er gøtt å ha en venn
DYEAR=2005
DGENRE=Danseband
TTITLE0=Det er gøtt å ha en venn
TTITLE1=På bestemors fang
TTITLE2=Tanta mi
TTITLE3=Du ga meg falske løfter
TTITLE4=Vannlilja
TTITLE5=I natt
TTITLE6=Hælja mi
TTITLE7=Kom sol, kom regn
TTITLE8=Makalaust kvinnfolk
TTITLE9=Et lys før dæ
TTITLE10=Vi over femti
TTITLE11=En uslipt diamant
EXTD=
EXTT0=
EXTT1=
EXTT2=
EXTT3=
EXTT4=
EXTT5=
EXTT6=
EXTT7=
EXTT8=
EXTT9=
EXTT10=
EXTT11=
PLAYORDER=
